<svg width="16" height="16" viewBox="0 0 16 16" fill="none" xmlns="http://www.w3.org/2000/svg">
<path d="M8.00001 1.33337C4.32401 1.33337 1.33334 4.32404 1.33334 8.00004C1.33334 11.676 4.32401 14.6667 8.00001 14.6667C11.676 14.6667 14.6667 11.676 14.6667 8.00004C14.6667 4.32404 11.676 1.33337 8.00001 1.33337ZM8.00001 13.3334C5.05934 13.3334 2.66668 10.9407 2.66668 8.00004C2.66668 5.05937 5.05934 2.66671 8.00001 2.66671C10.9407 2.66671 13.3333 5.05937 13.3333 8.00004C13.3333 10.9407 10.9407 13.3334 8.00001 13.3334Z" fill="white"/>
<path d="M8.66668 4.66663H7.33334V8.66663H11.3333V7.33329H8.66668V4.66663Z" fill="white"/>
</svg>
