<svg width="59" height="50" viewBox="0 0 59 50" fill="none" xmlns="http://www.w3.org/2000/svg">
<g clip-path="url(#clip0_364_243)">
<path d="M29.223 4.16667C24.7873 4.16667 20.6398 4.92079 16.7804 6.42904C12.9209 7.93728 9.85514 9.97179 7.58297 12.5326C5.3108 15.0933 4.17471 17.8602 4.17471 20.8333C4.17471 23.2639 4.95203 25.5805 6.50668 27.7832C8.06132 29.9859 10.252 31.8902 13.0786 33.4961L15.9161 35.1237L15.0355 38.2487C14.5136 40.2235 13.7526 42.0898 12.7524 43.8477C16.0574 42.4805 19.0471 40.625 21.7215 38.2812L23.124 37.0443L24.983 37.2396C26.4833 37.4132 27.8966 37.5 29.223 37.5C33.6586 37.5 37.8061 36.7459 41.6656 35.2376C45.525 33.7294 48.5908 31.6949 50.863 29.1341C53.1351 26.5733 54.2712 23.8064 54.2712 20.8333C54.2712 17.8602 53.1351 15.0933 50.863 12.5326C48.5908 9.97179 45.525 7.93728 41.6656 6.42904C37.8061 4.92079 33.6586 4.16667 29.223 4.16667ZM58.4459 20.8333C58.4459 24.6094 57.1413 28.0979 54.5322 31.2988C51.923 34.4998 48.3788 37.028 43.8997 38.8835C39.4206 40.7389 34.5283 41.6667 29.223 41.6667C27.7009 41.6667 26.1246 41.5799 24.4938 41.4062C20.1886 45.204 15.1877 47.8299 9.49094 49.2839C8.42552 49.5877 7.18615 49.8264 5.77284 50H5.60977C5.28362 50 4.99008 49.8861 4.72916 49.6582C4.46824 49.4303 4.2943 49.1319 4.20733 48.763V48.7305C4.1421 48.6437 4.13666 48.5135 4.19102 48.3398C4.24538 48.1662 4.26712 48.0577 4.25625 48.0143C4.24538 47.9709 4.2943 47.8678 4.40301 47.7051L4.5987 47.4121L4.82701 47.1354L5.08793 46.8424C5.24013 46.6688 5.57715 46.2945 6.09899 45.7194C6.62083 45.1443 6.9959 44.732 7.22421 44.4824C7.45251 44.2329 7.78953 43.8043 8.23527 43.1966C8.68101 42.589 9.03433 42.0356 9.29525 41.5365C9.55617 41.0373 9.84971 40.3971 10.1759 39.6159C10.502 38.8346 10.7847 38.01 11.0238 37.1419C7.61015 35.2105 4.91942 32.8233 2.95165 29.9805C0.983884 27.1376 0 24.0885 0 20.8333C0 17.0573 1.3046 13.5688 3.91379 10.3678C6.52298 7.16688 10.0671 4.63867 14.5463 2.7832C19.0254 0.927734 23.9176 0 29.223 0C34.5283 0 39.4206 0.927734 43.8997 2.7832C48.3788 4.63867 51.923 7.16688 54.5322 10.3678C57.1413 13.5688 58.4459 17.0573 58.4459 20.8333Z" fill="black"/>
</g>
<defs>
<clipPath id="clip0_364_243">
<rect width="58.4459" height="50" fill="white"/>
</clipPath>
</defs>
</svg>
